<svg xmlns="http://www.w3.org/2000/svg" viewBox="0 0 1200 900" font-family="'Segoe UI', 'Helvetica Neue', Arial, sans-serif">
  <defs>
    <filter id="shadow" x="-4%" y="-4%" width="108%" height="112%">
      <feDropShadow dx="0" dy="2" stdDeviation="4" flood-opacity="0.1"/>
    </filter>
    <filter id="shadowLg" x="-4%" y="-4%" width="108%" height="112%">
      <feDropShadow dx="0" dy="4" stdDeviation="8" flood-opacity="0.12"/>
    </filter>
    <linearGradient id="gkeGrad" x1="0%" y1="0%" x2="0%" y2="100%">
      <stop offset="0%" style="stop-color:#1a73e8;stop-opacity:0.06"/>
      <stop offset="100%" style="stop-color:#1a73e8;stop-opacity:0.02"/>
    </linearGradient>
    <linearGradient id="podGrad" x1="0%" y1="0%" x2="0%" y2="100%">
      <stop offset="0%" style="stop-color:#ffffff"/>
      <stop offset="100%" style="stop-color:#f8f9fa"/>
    </linearGradient>
    <linearGradient id="headerGrad" x1="0%" y1="0%" x2="100%" y2="0%">
      <stop offset="0%" style="stop-color:#1a1a2e"/>
      <stop offset="100%" style="stop-color:#16213e"/>
    </linearGradient>
    <linearGradient id="userGrad" x1="0%" y1="0%" x2="0%" y2="100%">
      <stop offset="0%" style="stop-color:#4285f4"/>
      <stop offset="100%" style="stop-color:#2563eb"/>
    </linearGradient>
    <linearGradient id="bqGrad" x1="0%" y1="0%" x2="0%" y2="100%">
      <stop offset="0%" style="stop-color:#669df6"/>
      <stop offset="100%" style="stop-color:#4285f4"/>
    </linearGradient>
    <linearGradient id="geminiGrad" x1="0%" y1="0%" x2="0%" y2="100%">
      <stop offset="0%" style="stop-color:#8b5cf6"/>
      <stop offset="100%" style="stop-color:#7c3aed"/>
    </linearGradient>
    <linearGradient id="lbGrad" x1="0%" y1="0%" x2="0%" y2="100%">
      <stop offset="0%" style="stop-color:#34a853"/>
      <stop offset="100%" style="stop-color:#1e8e3e"/>
    </linearGradient>
    <pattern id="grid" width="20" height="20" patternUnits="userSpaceOnUse">
      <path d="M 20 0 L 0 0 0 20" fill="none" stroke="#e8eaed" stroke-width="0.3"/>
    </pattern>
  </defs>
  <rect width="1200" height="900" fill="#fafbfc"/>
  <rect width="1200" height="900" fill="url(#grid)" opacity="0.5"/>
  <rect x="0" y="0" width="1200" height="56" fill="url(#headerGrad)"/>
  <text x="32" y="35" fill="#ffffff" font-size="18" font-weight="700" letter-spacing="0.5">GKE RETAIL CHATBOT</text>
  <text x="280" y="35" fill="#8b97a8" font-size="13" font-weight="400">Production Architecture</text>
  <text x="1168" y="35" fill="#8b97a8" font-size="11" font-weight="400" text-anchor="end">gke-retail-chatbot | us-central1</text>
  <g filter="url(#shadow)">
    <rect x="520" y="80" width="160" height="60" rx="12" fill="url(#userGrad)"/>
    <text x="600" y="107" fill="#ffffff" font-size="13" font-weight="600" text-anchor="middle">User Browser</text>
    <text x="600" y="125" fill="#dbeafe" font-size="10" text-anchor="middle">Chat UI (HTML/JS)</text>
  </g>
  <line x1="600" y1="140" x2="600" y2="172" stroke="#5f6368" stroke-width="1.5" stroke-dasharray="4,3"/>
  <polygon points="594,170 600,180 606,170" fill="#5f6368"/>
  <text x="615" y="163" fill="#5f6368" font-size="9" font-weight="500">HTTP</text>
  <g filter="url(#shadow)">
    <rect x="460" y="180" width="280" height="56" rx="10" fill="url(#lbGrad)"/>
    <text x="600" y="205" fill="#ffffff" font-size="12" font-weight="600" text-anchor="middle">GCE HTTP(S) Load Balancer</text>
    <text x="600" y="222" fill="#a8dab5" font-size="10" text-anchor="middle">K8s Ingress | External IP: 34.149.165.47</text>
  </g>
  <line x1="600" y1="236" x2="600" y2="268" stroke="#5f6368" stroke-width="1.5" stroke-dasharray="4,3"/>
  <polygon points="594,266 600,276 606,266" fill="#5f6368"/>
  <rect x="80" y="276" width="1040" height="340" rx="16" fill="url(#gkeGrad)" stroke="#1a73e8" stroke-width="1.5" stroke-dasharray="6,4"/>
  <rect x="80" y="276" width="220" height="28" rx="8" fill="#1a73e8"/>
  <text x="190" y="295" fill="#ffffff" font-size="11" font-weight="600" text-anchor="middle">GKE Autopilot Cluster</text>
  <g filter="url(#shadow)">
    <rect x="440" y="310" width="320" height="40" rx="8" fill="#ffffff" stroke="#dadce0" stroke-width="1"/>
    <text x="600" y="335" fill="#1a73e8" font-size="11" font-weight="600" text-anchor="middle">Service: retail-chatbot-svc (ClusterIP :80 -> :8080)</text>
  </g>
  <line x1="500" y1="350" x2="340" y2="390" stroke="#5f6368" stroke-width="1.2" stroke-dasharray="3,3"/>
  <polygon points="336,385 340,396 346,387" fill="#5f6368"/>
  <line x1="700" y1="350" x2="860" y2="390" stroke="#5f6368" stroke-width="1.2" stroke-dasharray="3,3"/>
  <polygon points="854,387 860,396 864,385" fill="#5f6368"/>
  <g filter="url(#shadowLg)">
    <rect x="140" y="390" width="400" height="200" rx="12" fill="url(#podGrad)" stroke="#dadce0" stroke-width="1"/>
    <rect x="140" y="390" width="400" height="36" rx="12" fill="#e8f0fe"/>
    <rect x="140" y="414" width="400" height="12" fill="#e8f0fe"/>
    <circle cx="160" cy="408" r="5" fill="#34a853"/>
    <text x="175" y="413" fill="#1a73e8" font-size="11" font-weight="600">Pod 1: retail-chatbot</text>
    <text x="510" y="413" fill="#5f6368" font-size="9" text-anchor="end">Node A | Running 1/1</text>
    <rect x="160" y="440" width="360" height="32" rx="6" fill="#fff3e0" stroke="#ffb74d" stroke-width="0.8"/>
    <text x="180" y="460" fill="#e65100" font-size="10" font-weight="500">FastAPI + Uvicorn (port 8080)</text>
    <rect x="160" y="480" width="175" height="32" rx="6" fill="#e8eaf6" stroke="#7986cb" stroke-width="0.8"/>
    <text x="180" y="500" fill="#283593" font-size="10" font-weight="500">Chatbot Engine</text>
    <rect x="345" y="480" width="175" height="32" rx="6" fill="#fce4ec" stroke="#ef9a9a" stroke-width="0.8"/>
    <text x="365" y="500" fill="#b71c1c" font-size="10" font-weight="500">Session Store</text>
    <rect x="160" y="520" width="120" height="28" rx="5" fill="#e8f5e9" stroke="#81c784" stroke-width="0.8"/>
    <text x="175" y="538" fill="#2e7d32" font-size="9" font-weight="500">CPU: 250m/1</text>
    <rect x="290" y="520" width="120" height="28" rx="5" fill="#e8f5e9" stroke="#81c784" stroke-width="0.8"/>
    <text x="305" y="538" fill="#2e7d32" font-size="9" font-weight="500">MEM: 512Mi/1Gi</text>
    <rect x="420" y="520" width="100" height="28" rx="5" fill="#f3e5f5" stroke="#ce93d8" stroke-width="0.8"/>
    <text x="435" y="538" fill="#6a1b9a" font-size="9" font-weight="500">Probes: 3</text>
  </g>
  <g filter="url(#shadowLg)">
    <rect x="660" y="390" width="400" height="200" rx="12" fill="url(#podGrad)" stroke="#dadce0" stroke-width="1"/>
    <rect x="660" y="390" width="400" height="36" rx="12" fill="#e8f0fe"/>
    <rect x="660" y="414" width="400" height="12" fill="#e8f0fe"/>
    <circle cx="680" cy="408" r="5" fill="#34a853"/>
    <text x="695" y="413" fill="#1a73e8" font-size="11" font-weight="600">Pod 2: retail-chatbot</text>
    <text x="1030" y="413" fill="#5f6368" font-size="9" text-anchor="end">Node B | Running 1/1</text>
    <rect x="680" y="440" width="360" height="32" rx="6" fill="#fff3e0" stroke="#ffb74d" stroke-width="0.8"/>
    <text x="700" y="460" fill="#e65100" font-size="10" font-weight="500">FastAPI + Uvicorn (port 8080)</text>
    <rect x="680" y="480" width="175" height="32" rx="6" fill="#e8eaf6" stroke="#7986cb" stroke-width="0.8"/>
    <text x="700" y="500" fill="#283593" font-size="10" font-weight="500">Chatbot Engine</text>
    <rect x="865" y="480" width="175" height="32" rx="6" fill="#fce4ec" stroke="#ef9a9a" stroke-width="0.8"/>
    <text x="885" y="500" fill="#b71c1c" font-size="10" font-weight="500">Session Store</text>
    <rect x="680" y="520" width="120" height="28" rx="5" fill="#e8f5e9" stroke="#81c784" stroke-width="0.8"/>
    <text x="695" y="538" fill="#2e7d32" font-size="9" font-weight="500">CPU: 250m/1</text>
    <rect x="810" y="520" width="120" height="28" rx="5" fill="#e8f5e9" stroke="#81c784" stroke-width="0.8"/>
    <text x="825" y="538" fill="#2e7d32" font-size="9" font-weight="500">MEM: 512Mi/1Gi</text>
    <rect x="940" y="520" width="100" height="28" rx="5" fill="#f3e5f5" stroke="#ce93d8" stroke-width="0.8"/>
    <text x="955" y="538" fill="#6a1b9a" font-size="9" font-weight="500">Probes: 3</text>
  </g>
  <g filter="url(#shadow)">
    <rect x="100" y="318" width="180" height="50" rx="8" fill="#ffffff" stroke="#fbbc04" stroke-width="1.5"/>
    <text x="190" y="339" fill="#f9a825" font-size="10" font-weight="600" text-anchor="middle">HPA Autoscaler</text>
    <text x="190" y="356" fill="#5f6368" font-size="9" text-anchor="middle">Min: 2 | Max: 8 | CPU: 70%</text>
  </g>
  <g filter="url(#shadow)">
    <rect x="920" y="318" width="180" height="50" rx="8" fill="#ffffff" stroke="#ea4335" stroke-width="1.5"/>
    <text x="1010" y="339" fill="#ea4335" font-size="10" font-weight="600" text-anchor="middle">Workload Identity</text>
    <text x="1010" y="356" fill="#5f6368" font-size="9" text-anchor="middle">KSA -> GSA (no keys)</text>
  </g>
  <line x1="340" y1="590" x2="280" y2="660" stroke="#4285f4" stroke-width="1.5" stroke-dasharray="4,3"/>
  <polygon points="274,656 280,666 286,656" fill="#4285f4"/>
  <line x1="860" y1="590" x2="920" y2="660" stroke="#7c3aed" stroke-width="1.5" stroke-dasharray="4,3"/>
  <polygon points="914,656 920,666 926,656" fill="#7c3aed"/>
  <g filter="url(#shadowLg)">
    <rect x="100" y="660" width="360" height="100" rx="12" fill="#ffffff" stroke="#dadce0" stroke-width="1"/>
    <rect x="100" y="660" width="360" height="36" rx="12" fill="url(#bqGrad)"/>
    <rect x="100" y="684" width="360" height="12" fill="url(#bqGrad)"/>
    <text x="280" y="684" fill="#ffffff" font-size="12" font-weight="600" text-anchor="middle">BigQuery</text>
    <text x="280" y="720" fill="#1a1a1a" font-size="11" font-weight="500" text-anchor="middle">retail_store.product_catalog</text>
    <text x="280" y="740" fill="#5f6368" font-size="10" text-anchor="middle">500 products | 6 categories | 22 fields</text>
  </g>
  <g filter="url(#shadowLg)">
    <rect x="740" y="660" width="360" height="100" rx="12" fill="#ffffff" stroke="#dadce0" stroke-width="1"/>
    <rect x="740" y="660" width="360" height="36" rx="12" fill="url(#geminiGrad)"/>
    <rect x="740" y="684" width="360" height="12" fill="url(#geminiGrad)"/>
    <text x="920" y="684" fill="#ffffff" font-size="12" font-weight="600" text-anchor="middle">Gemini 2.5 Flash</text>
    <text x="920" y="720" fill="#1a1a1a" font-size="11" font-weight="500" text-anchor="middle">AI Studio API</text>
    <text x="920" y="740" fill="#5f6368" font-size="10" text-anchor="middle">Conversational response generation</text>
  </g>
  <g transform="translate(100, 800)">
    <text x="0" y="14" fill="#1a1a1a" font-size="11" font-weight="600">Request Flow:</text>
    <circle cx="130" cy="10" r="8" fill="url(#userGrad)"/>
    <text x="145" y="14" fill="#5f6368" font-size="10">User</text>
    <text x="180" y="14" fill="#5f6368" font-size="10">-></text>
    <circle cx="205" cy="10" r="8" fill="url(#lbGrad)"/>
    <text x="220" y="14" fill="#5f6368" font-size="10">Load Balancer</text>
    <text x="310" y="14" fill="#5f6368" font-size="10">-></text>
    <circle cx="335" cy="10" r="8" fill="#1a73e8"/>
    <text x="350" y="14" fill="#5f6368" font-size="10">K8s Service</text>
    <text x="425" y="14" fill="#5f6368" font-size="10">-></text>
    <circle cx="450" cy="10" r="8" fill="#e65100"/>
    <text x="465" y="14" fill="#5f6368" font-size="10">FastAPI Pod</text>
    <text x="540" y="14" fill="#5f6368" font-size="10">-></text>
    <circle cx="565" cy="10" r="8" fill="url(#bqGrad)"/>
    <text x="580" y="14" fill="#5f6368" font-size="10">BigQuery</text>
    <text x="640" y="14" fill="#5f6368" font-size="10">+</text>
    <circle cx="665" cy="10" r="8" fill="url(#geminiGrad)"/>
    <text x="680" y="14" fill="#5f6368" font-size="10">Gemini</text>
    <text x="725" y="14" fill="#5f6368" font-size="10">-></text>
    <text x="745" y="14" fill="#5f6368" font-size="10">Response</text>
  </g>
  <g transform="translate(100, 840)">
    <rect x="0" y="0" width="70" height="22" rx="4" fill="#e8f0fe"/>
    <text x="35" y="15" fill="#1a73e8" font-size="9" font-weight="600" text-anchor="middle">Python 3.11</text>
    <rect x="80" y="0" width="60" height="22" rx="4" fill="#fff3e0"/>
    <text x="110" y="15" fill="#e65100" font-size="9" font-weight="600" text-anchor="middle">FastAPI</text>
    <rect x="150" y="0" width="56" height="22" rx="4" fill="#e8eaf6"/>
    <text x="178" y="15" fill="#283593" font-size="9" font-weight="600" text-anchor="middle">Docker</text>
    <rect x="216" y="0" width="80" height="22" rx="4" fill="#e8f5e9"/>
    <text x="256" y="15" fill="#2e7d32" font-size="9" font-weight="600" text-anchor="middle">GKE Autopilot</text>
    <rect x="306" y="0" width="72" height="22" rx="4" fill="#fce4ec"/>
    <text x="342" y="15" fill="#b71c1c" font-size="9" font-weight="600" text-anchor="middle">Cloud Build</text>
    <rect x="388" y="0" width="66" height="22" rx="4" fill="#f3e5f5"/>
    <text x="421" y="15" fill="#6a1b9a" font-size="9" font-weight="600" text-anchor="middle">Gemini AI</text>
    <rect x="464" y="0" width="64" height="22" rx="4" fill="#e0f2f1"/>
    <text x="496" y="15" fill="#00695c" font-size="9" font-weight="600" text-anchor="middle">BigQuery</text>
    <text x="1100" y="15" fill="#9aa0a6" font-size="9" text-anchor="end">24/24 checks passed | Cost: ~$2.59</text>
  </g>
</svg>
